<svg width="61" height="16" viewBox="0 0 61 16" fill="none" xmlns="http://www.w3.org/2000/svg">
<g id="Email" filter="url(#filter0_bi_25_77)">
<path d="M0.133301 15.3528V0.639169H11.6844V2.55022H2.91313V7.03328H11.0817V8.93715H2.91313V13.4418H11.7924V15.3528H0.133301Z" fill="#8C8A8A"/>
<path d="M15.1817 15.3528V4.31758H17.7636V6.11368H17.9346C18.2224 5.5054 18.6932 5.03123 19.347 4.69117C20.0007 4.34632 20.7834 4.17389 21.695 4.17389C22.6186 4.17389 23.3923 4.34632 24.016 4.69117C24.6457 5.03602 25.1105 5.51019 25.4104 6.11368H25.5543C25.8842 5.52456 26.409 5.05518 27.1287 4.70554C27.8484 4.35111 28.706 4.17389 29.7016 4.17389C30.9551 4.17389 31.9776 4.48761 32.7693 5.11505C33.567 5.74249 33.9658 6.68843 33.9658 7.95289V15.3528H31.2759V8.15405C31.2759 7.40687 31.021 6.86565 30.5113 6.53038C30.0015 6.1951 29.3927 6.02747 28.685 6.02747C27.8094 6.02747 27.1287 6.243 26.6429 6.67406C26.1571 7.10034 25.9142 7.64875 25.9142 8.31929V15.3528H23.2333V8.01755C23.2333 7.41885 22.9994 6.93749 22.5316 6.57348C22.0638 6.20947 21.4551 6.02747 20.7054 6.02747C20.1956 6.02747 19.7248 6.13523 19.293 6.35077C18.8672 6.56151 18.5223 6.85607 18.2584 7.23445C18.0005 7.61282 17.8716 8.05107 17.8716 8.54919V15.3528H15.1817Z" fill="#8C8A8A"/>
<path d="M41.5923 15.5971C40.7167 15.5971 39.925 15.4678 39.2173 15.2091C38.5096 14.9457 37.9489 14.5649 37.5351 14.0668C37.1272 13.5687 36.9233 12.958 36.9233 12.2348C36.9233 11.6121 37.0732 11.0997 37.3731 10.6973C37.673 10.295 38.0778 9.97649 38.5876 9.7418C39.0974 9.50711 39.6672 9.3299 40.2969 9.21016C40.9266 9.09042 41.5684 8.99941 42.2221 8.93715C43.0497 8.86051 43.7215 8.79825 44.2372 8.75035C44.753 8.69767 45.1279 8.61385 45.3618 8.4989C45.5957 8.38395 45.7126 8.19716 45.7126 7.93852V7.88823C45.7126 7.26079 45.4907 6.77464 45.0469 6.42979C44.6091 6.08494 43.9553 5.91252 43.0857 5.91252C42.1801 5.91252 41.4664 6.07297 40.9446 6.39387C40.4288 6.70999 40.072 7.06202 39.8741 7.44998L37.3461 6.99018C37.646 6.31963 38.0838 5.77841 38.6596 5.3665C39.2413 4.94981 39.9101 4.64806 40.6657 4.46127C41.4214 4.26969 42.2161 4.17389 43.0497 4.17389C43.6015 4.17389 44.1862 4.22658 44.804 4.33195C45.4277 4.43253 46.0095 4.61933 46.5493 4.89233C47.095 5.16534 47.5418 5.55569 47.8897 6.06339C48.2375 6.5663 48.4115 7.22008 48.4115 8.02473V15.3528H45.7846V13.8441H45.6766C45.5027 14.1219 45.2418 14.3949 44.894 14.6631C44.5461 14.9313 44.0993 15.154 43.5535 15.3313C43.0077 15.5085 42.354 15.5971 41.5923 15.5971ZM42.1771 13.8728C42.9208 13.8728 43.5565 13.7555 44.0843 13.5208C44.6181 13.2861 45.0229 12.9796 45.2988 12.6012C45.5807 12.218 45.7216 11.8085 45.7216 11.3727V9.95015C45.6256 10.0268 45.4397 10.0986 45.1638 10.1657C44.894 10.2279 44.5851 10.283 44.2372 10.3309C43.8894 10.374 43.5505 10.4147 43.2207 10.4531C42.8908 10.4866 42.6149 10.5153 42.393 10.5393C41.8712 10.592 41.3944 10.6806 40.9626 10.8051C40.5368 10.9296 40.1949 11.1092 39.937 11.3439C39.6851 11.5738 39.5592 11.8804 39.5592 12.2635C39.5592 12.7952 39.8051 13.1975 40.2969 13.4705C40.7887 13.7387 41.4154 13.8728 42.1771 13.8728Z" fill="#8C8A8A"/>
<path d="M51.9942 15.3528V4.31758H54.6841V15.3528H51.9942ZM53.3526 2.61488C52.8848 2.61488 52.483 2.49035 52.1471 2.24129C51.8173 1.98744 51.6524 1.6857 51.6524 1.33606C51.6524 0.981626 51.8173 0.679881 52.1471 0.430821C52.483 0.176973 52.8848 0.0500488 53.3526 0.0500488C53.8204 0.0500488 54.2193 0.176973 54.5491 0.430821C54.885 0.679881 55.0529 0.981626 55.0529 1.33606C55.0529 1.6857 54.885 1.98744 54.5491 2.24129C54.2193 2.49035 53.8204 2.61488 53.3526 2.61488Z" fill="#8C8A8A"/>
<path d="M60.9927 0.639169V15.3528H58.3028V0.639169H60.9927Z" fill="#8C8A8A"/>
</g>
<defs>
<filter id="filter0_bi_25_77" x="-3.8667" y="-3.94995" width="68.8594" height="23.5471" filterUnits="userSpaceOnUse" color-interpolation-filters="sRGB">
<feFlood flood-opacity="0" result="BackgroundImageFix"/>
<feGaussianBlur in="BackgroundImageFix" stdDeviation="2"/>
<feComposite in2="SourceAlpha" operator="in" result="effect1_backgroundBlur_25_77"/>
<feBlend mode="normal" in="SourceGraphic" in2="effect1_backgroundBlur_25_77" result="shape"/>
<feColorMatrix in="SourceAlpha" type="matrix" values="0 0 0 0 0 0 0 0 0 0 0 0 0 0 0 0 0 0 127 0" result="hardAlpha"/>
<feOffset dy="4"/>
<feGaussianBlur stdDeviation="2"/>
<feComposite in2="hardAlpha" operator="arithmetic" k2="-1" k3="1"/>
<feColorMatrix type="matrix" values="0 0 0 0 0 0 0 0 0 0 0 0 0 0 0 0 0 0 0.25 0"/>
<feBlend mode="normal" in2="shape" result="effect2_innerShadow_25_77"/>
</filter>
</defs>
</svg>
